<svg version="1.1" viewBox="0.0 0.0 960.0 540.0" fill="none" stroke="none" stroke-linecap="square" stroke-miterlimit="10" xmlns:xlink="http://www.w3.org/1999/xlink" xmlns="http://www.w3.org/2000/svg"><clipPath id="g2ba599e2e7f_0_64.0"><path d="m0 0l960.0 0l0 540.0l-960.0 0l0 -540.0z" clip-rule="nonzero"/></clipPath><g clip-path="url(#g2ba599e2e7f_0_64.0)"><path fill="#ffffff" d="m0 0l960.0 0l0 540.0l-960.0 0z" fill-rule="evenodd"/><path fill="#ffab40" d="m277.7558 483.25772l0 -81.03937l79.212585 81.07086z" fill-rule="evenodd"/><path stroke="#ffab40" stroke-width="1.0" stroke-linejoin="round" stroke-linecap="butt" d="m277.7558 483.25772l0 -81.03937l79.212585 81.07086z" fill-rule="evenodd"/><path fill="#ffab40" d="m653.7113 100.47507l0 81.03937l-79.21265 -81.03937z" fill-rule="evenodd"/><path stroke="#ffab40" stroke-width="1.0" stroke-linejoin="round" stroke-linecap="butt" d="m653.7113 100.47507l0 81.03937l-79.21265 -81.03937z" fill-rule="evenodd"/><path fill="#a64d79" d="m283.39206 106.7214l365.07083 0l0 371.46457l-365.07083 0z" fill-rule="evenodd"/><path fill="#000000" fill-opacity="0.0" d="m353.2231 110.73097l94.555664 0l0 261.77087l-94.555664 0z" fill-rule="evenodd"/><path fill="#ffab40" d="m424.2231 312.93408q-15.40625 0 -27.5 -6.796875q-12.09375 -6.8125 -19.09375 -19.0q-7.0 -12.203125 -7.0 -28.40625q0 -16.20311 7.0 -28.29686q7.0 -12.109375 19.09375 -18.90625q12.09375 -6.796875 27.5 -6.796875q13.40625 0 24.203125 6.0q10.796875 6.0 17.296875 18.0q6.5 12.0 6.5 29.999985q0 18.0 -6.296875 30.0q-6.296875 12.0 -17.109375 18.109375q-10.796875 6.09375 -24.59375 6.09375zm1.59375 -16.796875q10.0 0 18.09375 -4.59375q8.109375 -4.609375 12.8125 -13.109375q4.703125 -8.5 4.703125 -19.703125q0 -11.406235 -4.703125 -19.70311q-4.703125 -8.296875 -12.8125 -12.890625q-8.09375 -4.609375 -18.09375 -4.609375q-10.1875 0 -18.1875 4.609375q-8.0 4.59375 -12.8125 12.890625q-4.796875 8.296875 -4.796875 19.70311q0 11.203125 4.796875 19.703125q4.8125 8.5 12.8125 13.109375q8.0 4.59375 18.1875 4.59375zm36.203125 15.59375l0 -28.59375l1.203125 -24.609375l-2.0 -24.593735l0 -70.609375l19.203125 0l0 148.40623l-18.40625 0z" fill-rule="nonzero"/><path fill="#000000" fill-opacity="0.0" d="m431.90082 177.40683l127.6004 0l0 261.77087l-127.6004 0z" fill-rule="evenodd"/><path fill="#ffab40" d="m515.30707 379.60995q-13.609375 0 -24.515625 -6.09375q-10.890625 -6.109375 -17.1875 -18.109375q-6.296875 -12.0 -6.296875 -30.0q0 -18.0 6.5 -30.0q6.5 -12.0 17.390625 -18.0q10.90625 -6.0 24.109375 -6.0q15.59375 0 27.59375 6.796875q12.0 6.796875 19.0 18.90625q7.0 12.09375 7.0 28.296875q0 16.203125 -7.0 28.40625q-7.0 12.1875 -19.0 19.0q-12.0 6.796875 -27.59375 6.796875zm-56.203125 -1.203125l0 -148.40625l19.203125 0l0 70.609375l-2.0 24.59375l1.1875 24.609375l0 28.59375l-18.390625 0zm54.59375 -15.59375q10.203125 0 18.296875 -4.59375q8.109375 -4.609375 12.796875 -13.109375q4.703125 -8.5 4.703125 -19.703125q0 -11.40625 -4.703125 -19.703125q-4.6875 -8.296875 -12.796875 -12.890625q-8.09375 -4.609375 -18.296875 -4.609375q-10.0 0 -18.109375 4.609375q-8.09375 4.59375 -12.796875 12.890625q-4.6875 8.296875 -4.6875 19.703125q0 11.203125 4.6875 19.703125q4.703125 8.5 12.796875 13.109375q8.109375 4.59375 18.109375 4.59375z" fill-rule="nonzero"/></g></svg>